<svg xmlns="http://www.w3.org/2000/svg" viewBox="0 0 1024 1024" width="1024" height="1024" role="img" aria-label="OFEM app icon">
  <defs>
    <linearGradient id="bg" x1="0" y1="0" x2="0" y2="1">
      <stop offset="0" stop-color="#EAF4FB"></stop>
      <stop offset="1" stop-color="#BCD7EC"></stop>
    </linearGradient>
    <radialGradient id="deep" cx="0.3" cy="0.3" r="0.95">
      <stop offset="0" stop-color="#0078D4"></stop>
      <stop offset="0.6" stop-color="#1A508B"></stop>
      <stop offset="1" stop-color="#0F3A6B"></stop>
    </radialGradient>
    <radialGradient id="mid" cx="0.3" cy="0.3" r="0.95">
      <stop offset="0" stop-color="#028FDC"></stop>
      <stop offset="0.7" stop-color="#0078D4"></stop>
      <stop offset="1" stop-color="#1A508B"></stop>
    </radialGradient>
    <radialGradient id="spark" cx="0.4" cy="0.4" r="0.7">
      <stop offset="0" stop-color="#A6E0FF"></stop>
      <stop offset="0.6" stop-color="#5BC5FF"></stop>
      <stop offset="1" stop-color="#028FDC"></stop>
    </radialGradient>
    <clipPath id="squircle">
      <path d="M512 40 C 164 40 40 164 40 512 C 40 860 164 984 512 984 C 860 984 984 860 984 512 C 984 164 860 40 512 40 Z"></path>
    </clipPath>
  </defs>
  <g clip-path="url(#squircle)">
    <rect width="1024" height="1024" fill="url(#bg)"></rect>
    <g transform="translate(72 184) scale(4.4)">
      <g transform="translate(-8 28) scale(0.7)">
        <path d="M100 16 C 100 16 36 92 36 130 A 64 64 0 0 0 164 130 C 164 92 100 16 100 16 Z" fill="url(#deep)"></path>
      </g>
      <g transform="translate(82 14) scale(0.52)">
        <path d="M100 16 C 100 16 36 92 36 130 A 64 64 0 0 0 164 130 C 164 92 100 16 100 16 Z" fill="url(#mid)"></path>
      </g>
      <g transform="translate(38 102) scale(0.34)">
        <path d="M100 16 C 100 16 36 92 36 130 A 64 64 0 0 0 164 130 C 164 92 100 16 100 16 Z" fill="url(#spark)"></path>
      </g>
    </g>
  </g>
  <path d="M512 40 C 164 40 40 164 40 512 C 40 860 164 984 512 984 C 860 984 984 860 984 512 C 984 164 860 40 512 40 Z" fill="none" stroke="rgba(0,0,0,0.16)" stroke-width="2"></path>
</svg>